<?xml version="1.0" encoding="UTF-8" standalone="no"?>
<svg width="54px" height="78px" viewBox="0 0 54 78" version="1.1" xmlns="http://www.w3.org/2000/svg" xmlns:xlink="http://www.w3.org/1999/xlink">
    <!-- Generator: Sketch 42 (36781) - http://www.bohemiancoding.com/sketch -->
    <title>noun_862194_cc</title>
    <desc>Created with Sketch.</desc>
    <defs></defs>
    <g id="Page-1" stroke="none" stroke-width="1" fill="none" fill-rule="evenodd">
        <g id="noun_862194_cc" transform="translate(0.000000, -1.000000)" fill-rule="nonzero" fill="#000000">
            <g id="Group">
                <g transform="translate(0.000000, 0.637820)" id="Shape">
                    <path d="M27.000154,0.36219 C18.136254,0.36219 11.000354,7.49819 11.000354,16.36219 L11.000354,40.3622 C11.000354,49.2262 18.136254,56.3622 27.000154,56.3622 C35.864054,56.3622 42.999954,49.2262 42.999954,40.3622 L42.999954,16.36219 C42.999954,7.49819 35.864054,0.36219 27.000154,0.36219 Z M1.781654,27.33094 C0.798954,27.43895 -0.020846,28.37376 0.000454,29.36219 L0.000454,40.3622 C0.000454,54.4431 10.997854,66.2325 25.000154,67.2684 L25.000154,74.3622 L13.000254,74.3622 C11.895754,74.3622 11.000354,75.2576 11.000354,76.3622 C11.000354,77.4668 11.895754,78.3622 13.000254,78.3622 L40.999954,78.3622 C42.104554,78.3622 42.999954,77.4668 42.999954,76.3622 C42.999954,75.2576 42.104554,74.3622 40.999954,74.3622 L29.000054,74.3622 L29.000054,67.2684 C43.002354,66.2325 53.999754,54.4431 53.999754,40.3622 L53.999754,29.36219 C54.015754,28.305 53.057154,27.33196 51.999854,27.33196 C50.942454,27.33196 49.983954,28.305 49.999854,29.36219 L49.999854,40.3622 C49.999854,52.9306 39.757954,63.3622 27.000154,63.3622 C14.242254,63.3622 4.000454,52.9306 4.000454,40.3622 L4.000454,29.36219 C4.024454,28.22761 2.909654,27.20664 1.781654,27.33094 L1.781654,27.33094 Z"></path>
                </g>
            </g>
        </g>
    </g>
</svg>