<?xml version="1.0" encoding="UTF-8" standalone="no"?>
<svg width="52px" height="80px" viewBox="0 0 52 80" version="1.1" xmlns="http://www.w3.org/2000/svg" xmlns:xlink="http://www.w3.org/1999/xlink">
    <!-- Generator: Sketch 42 (36781) - http://www.bohemiancoding.com/sketch -->
    <title>noun_924502_cc</title>
    <desc>Created with Sketch.</desc>
    <defs></defs>
    <g id="Page-1" stroke="none" stroke-width="1" fill="none" fill-rule="evenodd">
        <g id="noun_924502_cc" transform="translate(0.000000, -1.000000)" fill-rule="nonzero" fill="#000000">
            <g id="Group">
                <g transform="translate(0.000000, 0.637820)" id="Shape">
                    <path d="M26.000306,0.36216 C16.599706,0.36216 9.000606,7.96146 9.000606,17.36216 L9.000606,41.3622 C9.000606,50.7629 16.599706,58.3622 26.000306,58.3622 C35.400806,58.3622 43.000006,50.7629 43.000006,41.3622 L43.000006,17.36216 C43.000006,7.96146 35.400806,0.36216 26.000306,0.36216 L26.000306,0.36216 Z M26.000306,2.36216 C34.327406,2.36216 41.000006,9.03486 41.000006,17.36216 L41.000006,41.3622 C41.000006,49.6895 34.327406,56.3622 26.000306,56.3622 C17.673106,56.3622 11.000506,49.6895 11.000506,41.3622 L11.000506,17.36216 C11.000506,9.03486 17.673106,2.36216 26.000306,2.36216 L26.000306,2.36216 Z M0.875707,29.33091 C0.384507,29.39251 -0.018593,29.86746 0.000707,30.36216 L0.000707,41.3622 C0.000707,55.2332 11.070906,66.7998 25.000306,67.3309 L25.000306,78.3622 L12.000506,78.3622 C11.448206,78.3622 11.000506,78.8099 11.000506,79.3622 C11.000506,79.9145 11.448206,80.3622 12.000506,80.3622 L40.000006,80.3622 C40.552306,80.3622 41.000006,79.9145 41.000006,79.3622 C41.000006,78.8099 40.552206,78.3542 40.000006,78.3622 L27.000306,78.3622 L27.000306,67.3309 C40.929706,66.7998 51.999806,55.2332 51.999806,41.3622 L51.999806,30.36216 C52.009806,29.83313 51.528906,29.34572 50.999806,29.34572 C50.470806,29.34572 49.991306,29.83313 49.999906,30.36216 L49.999906,41.3622 C49.999906,54.4749 39.304106,65.3622 26.000306,65.3622 C12.696506,65.3622 2.000706,54.4749 2.000706,41.3622 L2.000706,30.36216 C2.023706,29.78392 1.449806,29.25819 0.875707,29.33091 L0.875707,29.33091 Z"></path>
                </g>
            </g>
        </g>
    </g>
</svg>