<svg xmlns="http://www.w3.org/2000/svg" viewBox="0 0 50 50"><path fill="#9855D4" d="M8.4 20.8c-.1 0-.3 0-.4-.1l-4.2-2.4c-.5-.3-.6-.9-.4-1.3.2-.4.8-.6 1.2-.3l4.2 2.4c.4.2.6.8.3 1.2-.1.3-.4.5-.7.5zm7.6-7.3c.4-.2.6-.8.3-1.2l-2.4-4.2c-.2-.4-.8-.6-1.2-.3-.4.2-.6.8-.3 1.2l2.4 4.2c.2.3.5.4.8.4.1 0 .3-.1.4-.1zm10.2-3.4V5.2c0-.5-.4-.9-.9-.9s-.9.4-.9.9V10c0 .5.4.9.9.9.5.1.9-.3.9-.8zm9.7 3l2.4-4.2c.2-.4.1-1-.3-1.2-.4-.2-1-.1-1.2.3l-2.4 4.2c-.2.4-.1 1 .3 1.2.1.1.3.1.4.1.4.1.7-.1.8-.4zm6.9 7.5l4.2-2.4c.4-.2.6-.8.3-1.2-.2-.4-.8-.6-1.2-.3l-4.2 2.4c-.4.2-.6.8-.3 1.2.2.3.5.4.8.4.1.1.3 0 .4-.1zm-16.7-6.3c-1.6 0-3.4.4-4.5.7-.1 0-.2.1-.2.2s.1.2.2.2.3-.1.5-.1c.9-.1 1.4-.2 2.7-.2 1.5 0 2.9.3 4.4.8-5.8 2.1-11.5 10-13.4 17.1-2.1-2.3-3.4-4.9-3.4-7.4 0-4.1 3.4-6.6 8.3-6.6h.4c.1 0 .1-.1.1-.2s-.1-.1-.2-.2c-.3-.1-1.1-.1-1.9-.1-4.9 0-8.5 2.5-8.5 7.1 0 3.1 1.8 6.5 4.7 9.4-.2 1-.3 2-.3 2.9 0 .4 0 1.1.2 1.9-1.7-1.5-3-3.3-3.7-5.2-.1-.4-.4-1.1-.5-1.3 0-.1-.1-.2-.2-.2s-.2.1-.2.2 0 .4.1.5c1 5.2 6.2 11.8 14.6 11.8 9.4 0 15.8-7.7 15.8-15.8.1-8.4-6.3-15.5-15-15.5zm-.8 29.4c-3 0-5.6-1.1-6.7-1.7-1.5-.8-1.9-2.2-1.9-4.1 0-.5 0-1.1.1-1.6 3.7 3.1 8.7 5.3 13.6 5.3 1.1 0 2.1-.2 3-.4-1.5 1.2-4.5 2.5-8.1 2.5zm5.1-3.8c-4.7 0-9.7-2.3-13.2-5.5 1.8-8.2 9.2-17.3 13.9-17.3.5 0 1 .1 1.6.5.9.6 1.8 1.3 2.5 2 2.2 2.1 4.2 5.7 4.2 10.1 0 3.4-1.2 6.1-2.4 7.7-1.4 1.8-3.9 2.5-6.6 2.5z"/></svg>